/* XPM */
static const char *collectible[] = {
/* columns rows colors chars-per-pixel */
"64 64 83 1 ",
"  c black",
". c #271810",
"X c #102700",
"o c #172D00",
"O c #182E00",
"+ c #1C3404",
"@ c #203606",
"# c #223A07",
"$ c #213708",
"% c #243B0B",
"& c #293E0E",
"* c #332015",
"= c #293F10",
"- c #543423",
"; c #2B410E",
": c #2D4314",
"> c #2F4618",
", c #314615",
"< c #334916",
"1 c #314718",
"2 c #354B1B",
"3 c #394E1E",
"4 c #3B511E",
"5 c #364F20",
"6 c #3A4F20",
"7 c #375121",
"8 c #3C5323",
"9 c #3E5829",
"0 c #415625",
"q c #435926",
"w c #415728",
"e c #455B2B",
"r c #495E2D",
"t c #475C31",
"y c #495F30",
"u c #69412C",
"i c #4A612E",
"p c #4C602F",
"a c #50622E",
"s c #486030",
"d c #4A6133",
"f c #4F6332",
"g c #4E6433",
"h c #4D6535",
"j c #4E6435",
"k c #4F6638",
"l c #506431",
"z c #506433",
"x c #506637",
"c c #536736",
"v c #516834",
"b c #506836",
"n c #566A37",
"m c #516738",
"M c #546739",
"N c #506838",
"B c #536938",
"V c #536B3B",
"C c #566C3B",
"Z c #556B3C",
"A c #596D3A",
"S c #586E3D",
"D c #5B713E",
"F c #5A703F",
"G c gray27",
"H c #596F40",
"J c #597141",
"K c #5C7242",
"L c #5E7443",
"P c #5C7444",
"I c #617544",
"U c #607645",
"Y c #637A46",
"T c #607648",
"R c #627849",
"E c #647A4B",
"W c #647C48",
"Q c #677D4E",
"! c #687E4D",
"~ c gray50",
"^ c #C3C3C3",
"/ c #DFDFDF",
"( c white",
/* pixels */
"6>:82Nr8ff&<88z40ewwfJwrd838r8id2:1jrNf1e08ej28:wx8w>w2d8w4vd4zr",
"1dN2P8d2+iv1wvq:ne3jej8e8reijjw81jdd&1wC43HrdreZfr:2N2jd8wddNvq8",
">wd>88gr2weerSr4n8wdd2jr2%8&wjr218228NKrNNwr8ddd@>28r2w2+R8%8xw2",
"J%282w0838w2r0eYz8N2Zw8w22wrvv+gZ&r0rmf0Nd&8ZEd>2rd82Nw&8:rrNN@x",
"d+80888rrdrx82e8,,eeeNjdjrj8wN82x&2&vv0j:2e8Y:4weiZ8Z2rdjdN3rf82",
"ej,8rr8r8828=:&8wL2U382rww>8d8w:f2&r3rP2$Ne388WweJrr8j82w820e8d;",
"F1,i8dw32d1r288mw3e0,3w2Z288f02xr,x0nNfSQNejg8i2gnS82wNNS62ed86M",
"Nx2rj0x2w8ew2>JN4ree!F:Q86Pjx8d3q04zfpr22r8g4e24Az%f2vwNr1Rxdwf0",
"fNf2&e8%28&e:2wwe%0fxrf4r82N222,UnfrSx22&;22282p0,:8gL8%efPex8,f",
"83,N>r8fZm2w8jZ03e888w8wr8r8&e    qr,3Z8884v1e84gAfwx,26frwwjw0z",
"z<33wf2mwfyXx:8Z2:iwxxw2rCrd   ~~~  2wewTXr>8Lvv8x8N6r8:w822j808",
",pfz1r           JNwrew2rJ3  ~~~GGG   8eZrwRw1g           j>%,02",
";An00  ^^^^~^^^^^   &x&v0  ^~GGGGGGGG  m2208   ~~~~^^~~~^  Z3N00",
"8rq0  /^^^^~^^^^~~~  480  ^~G      GGG   38  /^^^^~~^~~~^^  ee2f",
"r02& //   ^~^^^^~~~~~    ^~   uu u-   GG   //^^^^^^~^^   ^^ wj4i",
"np4A    J     ^^~~~~~^ ^^~   uuu u-*   GG ///^^^^^     w    8iew",
"CwC8r028g  ^^^ ~~~~~^^     u uuu --* *    //^^^^^ ^^~  ewpgiegwr",
"p484Ne@8  ^^^^   ~~^^^^  -uu uu- -** ..  ///^^^   ^^~^  4;84qqii",
"448efr4r ~~^^^~~~ ^^^^^^  uu u-- *** .  ////^^  ^^^~~^^ 44ie8,q1",
"2gi8>28 ^~^    ~~~  ^^^^^  u --- **.   ////^  ^^^    ^~~ i2peiie",
"w84eN8  ^   ^^    ^  ^^^~~ - --- **.  /////  ^    ^^   ~  4#vZ88",
";1v%:  ^   ^^^~~~  ^  ^^^~   --* *..  ////  ^  ^^^^^~   ^  NJi>2",
"Jr:Nd /   ^^^^~~~~~   ^^^~~  *** ..  /////   ^^^^^^^~^   ^ ;771N",
"8RN8d   ^~^^^~~~~~~^   ^^^~~  ** .  /////   ^^^^^^^^~^^~   e9%ej",
"r2$rPe ^^~^^     ~^^^   ^^~~~ .. . /////   /^^^     ~^~~~ 59:75j",
"8Jdex  ^^    ^~~   ^^^  ^^^~~      /////  //^   ^^^    ~~  7e:Z2",
"w3%eg /   ^^^^~~~^  ^^^ ^^^~   ^^G  //// //^  ^^^^^^~^   ^ %d8J:",
"82d>r   ~~~^^^~    ^ ^^ ^^~~ (^^^GG //// /^ ^    ^^~~^^~   w>8r2",
"0&<:r  ^^^~~^   ~~    ^ ^^~  (^^^GG  /// /    ^^   ~^^^~~  23mMr",
"q,x2z8 ^^^^   ^~~~~^    ^^ ~~((^^GGGG //    /^^^^^   ^~~~ 8w8e:r",
"0r23rq /^^  ^^^~~~~^^^   ^ ~~~((^GG^^ /   //^^^^^^~^  ~~^ ,mN0&x",
"S3r,0p //  ~~^^^~~~~^^^  ^  ~~~(^G^^  /  //^^^^^^~~^~  ^^ weef3U",
"3:3NZF  / ^^~~^^~~~~^^^  ^~  ~~~(^^  //  //^^^^^~~^^~~ ^  22d8jr",
">m3w38  / ^^^~^^^         ^~ GGG^~~ //         ~~^^~~~ ^  rjjNw8",
":r2rjy8   /^^^    ~~^^^   ^~ GG^G~~ //   /^^^^    ^~~^   %8%8N82",
"J@eP2%=yr /^^  ^^~~~~^^^  ^^~ ^^G~ ///  //^^^^^^~  ~^^ d22rwZZ+j",
"d%fP,8N6& //  ^^^^~~~^^^^  ^~ ^GG~ //  //^^^^^^~~^  ^^ wdrN80x82",
"rr3jSx0rJ& / ~~^^^^        ^~  GG  //        ^^~^^~ ^ 8der>wr8r,",
"j22w:8yJZo   ^~^^^  ~~~^^   ^~    //   //^^^  ~~^^~   Z0S28wdw2j",
"Nwjd0fwer:  ^^~~  ~~~~^^^   ^~  . //   //^^^^^  ^~~~  d8d1Pxf8f8",
"32jdr:N82de ^^^  ^^~~~~^^^  ^~  . //  //^^^^^^~  ~~~ :ff6dPwj8,f",
"82K62Nww>>2 /^  ^^^^~~      ^~  . //      ^^^~~^  ~^ 83f0e80Ny3e",
"ex288j>2JNd // ~~^^^^  ~~   ^~  . //   /^  ^~~^^~ ~^ wK8N888eed2",
"Z88NRwdrd:8 // ^^~^   ~~~^^ ^^  . // //^^^   ^^~~ ^^ xj8f:ffe2:w",
"18x8wejj8>rd / ^^^  ^^~~~^^ ^^  . // //^^^^~  ~~~ ^ 28rj2jNC%44w",
"0frer268r83:8  ^^  ^^^^~~~^ ^   .  / /^^^^^~~  ~^  w2>r8wwf4w0;g",
"rw2&j2rd6%80rr /^ ^~~^^       - ..       ~~~^~ ~^ >%>d2>884:1v4i",
"Nz6H:Smr2w:2rN // ^^~~  ^^~   - *.   /^^  ^^~~ ^^ 2Z2r2828rw8eqq",
"meC8xegef0,f3pU / ^^^  ~~^~~  - *.  /^^^~  ~~~ ^ 4>w;Cg83%jiigqq",
"f383::,,82f4nSrf  /^^ ^^~^^~  u *.  ^^^~~^ ~~^  4;g;wf4KN:w8w0vi",
"8N&F88Z2z03zzpr82 //^ ^^~~^~  u *.  ^^~~^^ ~^^ rC1i2errF48iww<2e",
"r22x:8:8Kxnrnr<2&& // ^^^     u *.     ^^~ ^^ i#21iFxwNN0r2fiwi8",
"8rf4;pnf2x8024F888w   /^^ ^^  u *.  ^^ ~~~   q2<jj8wff&2w23+gJ2e",
"dNwp2FP1rf0860q8P+w28 /// ^^  u *.  ^^ ~~^ iF48AZx3g3we33N;vP8i2",
"iN44eU:,&8Fwf=8jkdjJe2 /  ^   u *.   ^  ^ i8dw,xr:&:eK0wewr:2we4",
"4<4&2reZ2vxe%eyH:2dJd8i 2 ^ ^      G ^ j 8wvr32e883ijP&3:8rw4e#C",
"62%&44rx0=jOHP8w8d888d8Qe8  ^^~~~GGG  d$r0Zd:d2eZxe0e6;Jr82e2808",
"33x<z0qee12yr3Zf&8d+2djwv%7  ~~GGGG  Zw20Ee128SJf8Z&82r8N&r;8e2x",
"nq,fefxe8efC888&Njjr22:Qw8>+  GGGG  x8ZdU28=P:w2fwfwyeri8Nj2z0px",
"q00ee&8e044n2rjNR:2jN8j28rdr8      >rwZd2:%828J2821M2yi8iweexe0g",
"r,f;Ar02frxe28vvydfZ88w8r88>2fZ2r:22rwJ08=r2:dw86ydm8J1r:zegF020",
"xefznr8288e:ww2wer,NZd2Nd22w8w2w28d>j8wjrS8Pe>2>ry>mer21g:gig<0,",
"r2;<S3fKww3zvFe2Kd6y8>ZjdN>ZN0=N882Nxrr8:rdj68Zd68ww8>r8enqnpq;a",
"N,z<q34Ng42gveCi2rf88rjJwww8rd8PZ2jwZw=882:N8>r82tj&w30wieqzqp4F"
};
