/* XPM */
static const char *item[] = {
/* columns rows colors chars-per-pixel */
"64 64 10 1 ",
". c #271810",
"X c #332015",
"o c #543423",
"O c #69412C",
"+ c gray27",
"@ c gray50",
"# c #C3C3C3",
"$ c #DFDFDF",
"% c white",
"& c None",
/* pixels */
"&&&&&&&&&&&&&&&&&&&&&&&&&&&&&&&&&&&&&&&&&&&&&&&&&&&&&&&&&&&&&&&&",
"&&&&&&&&&&&&&&&&&&&&&&&&&&&&&&&&&&&&&&&&&&&&&&&&&&&&&&&&&&&&&&&&",
"&&&&&&&&&&&&&&&&&&&&&&&&&&&&&&&&&&&&&&&&&&&&&&&&&&&&&&&&&&&&&&&&",
"&&&&&&&&&&&&&&&&&&&&&&&&&&&&&&&&&&&&&&&&&&&&&&&&&&&&&&&&&&&&&&&&",
"&&&&&&&&&&&&&&&&&&&&&&&&&&&&&&&&&&&&&&&&&&&&&&&&&&&&&&&&&&&&&&&&",
"&&&&&&&&&&&&&&&&&&&&&&&&&&&&&&&&&&&&&&&&&&&&&&&&&&&&&&&&&&&&&&&&",
"&&&&&&&&&&&&&&&&&&&&&&&&&&&&&&&&&&&&&&&&&&&&&&&&&&&&&&&&&&&&&&&&",
"&&&&&&&&&&&&&&&&&&&&&&&&&&&&&&&&&&&&&&&&&&&&&&&&&&&&&&&&&&&&&&&&",
"&&&&&&&&&&&&&&&&&&&&&&&&&&&&&&&&&&&&&&&&&&&&&&&&&&&&&&&&&&&&&&&&",
"&&&&&&&&&&&&&&&&&&&&&&&&&&&&&&    &&&&&&&&&&&&&&&&&&&&&&&&&&&&&&",
"&&&&&&&&&&&&&&&&&&&&&&&&&&&&   @@@  &&&&&&&&&&&&&&&&&&&&&&&&&&&&",
"&&&&&&           &&&&&&&&&&  @@@+++   &&&&&&&&&           &&&&&&",
"&&&&&  ####@#####   &&&&&  #@++++++++  &&&&&   @@@@##@@@#  &&&&&",
"&&&&  $####@####@@@  &&&  #@+      +++   &&  $####@@#@@@##  &&&&",
"&&&& $$   #@####@@@@@    #@   OO Oo   ++   $$######@##   ## &&&&",
"&&&&    &     ##@@@@@# ##@   OOO OoX   ++ $$$#####     &    &&&&",
"&&&&&&&&&  ### @@@@@##     O OOO ooX X    $$##### ##@  &&&&&&&&&",
"&&&&&&&&  ####   @@####  oOO OOo oXX ..  $$$###   ##@#  &&&&&&&&",
"&&&&&&&& @@###@@@ ######  OO Ooo XXX .  $$$$##  ###@@## &&&&&&&&",
"&&&&&&& #@#    @@@  #####  O ooo XX.   $$$$#  ###    #@@ &&&&&&&",
"&&&&&&  #   ##    #  ###@@ o ooo XX.  $$$$$  #    ##   @  &&&&&&",
"&&&&&  #   ###@@@  #  ###@   ooX X..  $$$$  #  #####@   #  &&&&&",
"&&&&& $   ####@@@@@   ###@@  XXX ..  $$$$$   #######@#   # &&&&&",
"&&&&&   #@###@@@@@@#   ###@@  XX .  $$$$$   ########@##@   &&&&&",
"&&&&&& ##@##     @###   ##@@@ .. . $$$$$   $###     @#@@@ &&&&&&",
"&&&&&  ##    #@@   ###  ###@@      $$$$$  $$#   ###    @@  &&&&&",
"&&&&& $   ####@@@#  ### ###@   ##+  $$$$ $$#  ######@#   # &&&&&",
"&&&&&   @@@###@    # ## ##@@ %###++ $$$$ $# #    ##@@##@   &&&&&",
"&&&&&  ###@@#   @@    # ##@  %###++  $$$ $    ##   @###@@  &&&&&",
"&&&&&& ####   #@@@@#    ## @@%%##++++ $$    $#####   #@@@ &&&&&&",
"&&&&&& $##  ###@@@@###   # @@@%%#++## $   $$######@#  @@# &&&&&&",
"&&&&&& $$  @@###@@@@###  #  @@@%#+##  $  $$######@@#@  ## &&&&&&",
"&&&&&&  $ ##@@##@@@@###  #@  @@@%##  $$  $$#####@@##@@ #  &&&&&&",
"&&&&&&  $ ###@###         #@ +++#@@ $$         @@##@@@ #  &&&&&&",
"&&&&&&&   $###    @@###   #@ ++#+@@ $$   $####    #@@#   &&&&&&&",
"&&&&&&&&& $##  ##@@@@###  ##@ ##+@ $$$  $$######@  @## &&&&&&&&&",
"&&&&&&&&& $$  ####@@@####  #@ #++@ $$  $$######@@#  ## &&&&&&&&&",
"&&&&&&&&&& $ @@####        #@  ++  $$        ##@##@ # &&&&&&&&&&",
"&&&&&&&&&&   #@###  @@@##   #@    $$   $$###  @@##@   &&&&&&&&&&",
"&&&&&&&&&&  ##@@  @@@@###   #@  . $$   $$#####  #@@@  &&&&&&&&&&",
"&&&&&&&&&&& ###  ##@@@@###  #@  . $$  $$######@  @@@ &&&&&&&&&&&",
"&&&&&&&&&&& $#  ####@@      #@  . $$      ###@@#  @# &&&&&&&&&&&",
"&&&&&&&&&&& $$ @@####  @@   #@  . $$   $#  #@@##@ @# &&&&&&&&&&&",
"&&&&&&&&&&& $$ ##@#   @@@## ##  . $$ $$###   ##@@ ## &&&&&&&&&&&",
"&&&&&&&&&&&& $ ###  ##@@@## ##  . $$ $$####@  @@@ # &&&&&&&&&&&&",
"&&&&&&&&&&&&&  ##  ####@@@# #   .  $ $#####@@  @#  &&&&&&&&&&&&&",
"&&&&&&&&&&&&&& $# #@@##       o ..       @@@#@ @# &&&&&&&&&&&&&&",
"&&&&&&&&&&&&&& $$ ##@@  ##@   o X.   $##  ##@@ ## &&&&&&&&&&&&&&",
"&&&&&&&&&&&&&&& $ ###  @@#@@  o X.  $###@  @@@ # &&&&&&&&&&&&&&&",
"&&&&&&&&&&&&&&&&  $## ##@##@  O X.  ###@@# @@#  &&&&&&&&&&&&&&&&",
"&&&&&&&&&&&&&&&&& $$# ##@@#@  O X.  ##@@## @## &&&&&&&&&&&&&&&&&",
"&&&&&&&&&&&&&&&&&& $$ ###     O X.     ##@ ## &&&&&&&&&&&&&&&&&&",
"&&&&&&&&&&&&&&&&&&&   $## ##  O X.  ## @@@   &&&&&&&&&&&&&&&&&&&",
"&&&&&&&&&&&&&&&&&&&&& $$$ ##  O X.  ## @@# &&&&&&&&&&&&&&&&&&&&&",
"&&&&&&&&&&&&&&&&&&&&&& $  #   O X.   #  # &&&&&&&&&&&&&&&&&&&&&&",
"&&&&&&&&&&&&&&&&&&&&&&& & # #      + # & &&&&&&&&&&&&&&&&&&&&&&&",
"&&&&&&&&&&&&&&&&&&&&&&&&&&  ##@@@+++  &&&&&&&&&&&&&&&&&&&&&&&&&&",
"&&&&&&&&&&&&&&&&&&&&&&&&&&&  @@++++  &&&&&&&&&&&&&&&&&&&&&&&&&&&",
"&&&&&&&&&&&&&&&&&&&&&&&&&&&&  ++++  &&&&&&&&&&&&&&&&&&&&&&&&&&&&",
"&&&&&&&&&&&&&&&&&&&&&&&&&&&&&      &&&&&&&&&&&&&&&&&&&&&&&&&&&&&",
"&&&&&&&&&&&&&&&&&&&&&&&&&&&&&&&&&&&&&&&&&&&&&&&&&&&&&&&&&&&&&&&&",
"&&&&&&&&&&&&&&&&&&&&&&&&&&&&&&&&&&&&&&&&&&&&&&&&&&&&&&&&&&&&&&&&",
"&&&&&&&&&&&&&&&&&&&&&&&&&&&&&&&&&&&&&&&&&&&&&&&&&&&&&&&&&&&&&&&&",
"&&&&&&&&&&&&&&&&&&&&&&&&&&&&&&&&&&&&&&&&&&&&&&&&&&&&&&&&&&&&&&&&"
};
