/* XPM */
static const char *collectible[] = {
/* columns rows colors chars-per-pixel */
"64 64 107 2 ",
"   c black",
".  c #000A00",
"X  c #1D1607",
"o  c #1D1D1D",
"O  c #350009",
"+  c #251C0A",
"@  c #112700",
"#  c #172D00",
"$  c #192C00",
"%  c #1D3304",
"&  c #31240D",
"*  c #203606",
"=  c #233906",
"-  c #213608",
";  c #243B0B",
":  c #293E0D",
">  c #3F2F10",
",  c #273E10",
"<  c #293F10",
"1  c #313131",
"2  c #5B0010",
"3  c #710014",
"4  c #2B410E",
"5  c #264010",
"6  c #2C4314",
"7  c #2F4619",
"8  c #314615",
"9  c #324916",
"0  c #314719",
"q  c #354C1B",
"w  c #394E1E",
"e  c #3B511E",
"r  c #364E20",
"t  c #394F20",
"y  c #375121",
"u  c #3C5323",
"i  c #3E5828",
"p  c #415625",
"a  c #435926",
"s  c #485C27",
"d  c #415728",
"f  c #455B2B",
"g  c #495E2D",
"h  c #465C31",
"j  c #495F30",
"k  c #4A612E",
"l  c #50622E",
"z  c #466030",
"x  c #4B6132",
"c  c #4C6231",
"v  c #4C6333",
"b  c #4F6332",
"n  c #4E6433",
"m  c #4E6435",
"M  c #4E6634",
"N  c #4F6831",
"B  c #506431",
"V  c #506433",
"C  c #506733",
"Z  c #506637",
"A  c #536736",
"S  c #516834",
"D  c #566A37",
"F  c #516738",
"G  c #546739",
"H  c #506838",
"J  c #536938",
"K  c #526A3A",
"L  c #566A39",
"P  c #546B3B",
"I  c #566C3B",
"U  c #556B3C",
"Y  c #576D3E",
"T  c #596D3A",
"R  c #586E3D",
"E  c #5B713E",
"W  c #5A703F",
"Q  c #444444",
"!  c #5F5F5F",
"~  c #576E40",
"^  c #596F40",
"/  c #596F41",
"(  c #567040",
")  c #597141",
"_  c #5C7342",
"`  c #5E7443",
"'  c #5C7444",
"]  c #5F7949",
"[  c #607546",
"{  c #637A46",
"}  c #627849",
"|  c #637B4B",
" . c #647A4B",
".. c #647C48",
"X. c gray50",
"o. c #8A5639",
"O. c #B97A57",
"+. c #CA9C00",
"@. c #FFC90E",
"#. c #FF9866",
"$. c gray65",
"%. c gray74",
"&. c #FFAA82",
"*. c #FFBE9F",
"=. c #C3C3C3",
"-. c #C8C8C8",
";. c white",
/* pixels */
"t 7 5 u q H g u c c : 9 u u V e p f d d c ) d g z u w u g u k x w 6 0 m g H c 9 f p u f m w u 5 d Z u d 7 d q x u d e m z e V g ",
"0 x H q ' u c q % k S 9 d S a 6 D f w m f m u f u g f   m m d u 0 m x x : 0 d I e w ^ g x g f U c g 5 q H w m x u d z x H S a u ",
"7 d x 7 u u n g q d f f g R g e D u d x x w m g w ;       m g q 0 u q q u H _ g H H d g u x x x * 7 q u g q d w % } u ; u Z d q ",
") ; q u q d p u w u d q g p f { V u H w U d u d       X.      n U < g p g F c p H x :      .x 7 q g x u w H d : u 5 g g H H * Z ",
"x % u p u u u g g x g Z u q f u 8 8 f f f H m   X X   X.  X X   Z : q : S S p m 6 w   o.  6 e d f k U u U w g x m x H w g c u w ",
"f m 8 u g g u g u u w u < 6 : u d ` q [ w u   X X X   X.  X X   c w : g w g ' w -   o.  u u ..d f ) g g u m u w d u q p f u x 4 ",
"W 9 8 k u x d w w x 0 g q u u F d w f p 8           X.X.  X X X   8 Z p D H c R =.  o.  n u k 9 n D R u w d H H R t q f x u t G ",
"H Z q g m p Z q d u f d w 7 ) H e g f f     X.X.X.X.X.  X.  X X   p e V c k g =.w   o.  e f q e T V ; c q S d H g 0 } Z x d c p ",
"c H c q : f u ; q u : f 6 w d d f ; p c Z           X.X.X.X.        c g R =.=.w <   o.  q u 9 k p 8 6 u n ` u ; f c ' f Z u 8 c ",
"u w 8 H 6 f u c U F q d u m U p w f u u u d   *.*.*.      X.X.X.X.    g =.w U u u   o.  9 f u e n T c d Z 8 w t c g d d m d p V ",
"V 9 w w d c 0 F d c j @ Z 5 u U w 5 k d Z Z   *.*.*.&.#.#.          p =.q d f d }   o.  u ` S S u Z u H t g u 5 d u q w m u p u ",
"8 k c V 0 g d c x 6 c } [ u w u P ) H d g f       *.*.&.&.#.#.  8 =.=.f c 6 u f U f   o.  9 n k       f j w y u w u m 7 ; 8 p q ",
"4 T D p p g d 0 f f 0 t q u d u u w u 5     & + X   *.*.*.&.&.  =.c R c : u f F w q   o.o.  k     e q m q q u u u % U U w H p p ",
"u g a a G q u g u w f 7 n           u u   > > & + X   *.*.*.*.  d 7 m % U } m d u w     o.  <   o.  d d x u m ) m ) x u f f q c ",
"g p q : g a : q 5 w         > > > >             & & X   *.*.  U u w t d d u f u < u Z   o.o.  o.o.  u U x w u q g w w 5 i m e k ",
"D k e T 9 4 q f )   Q !     > > > > >   + > *.    X.X.X.      w t u x H f u 0 d ^ d q m   o.  o.o.  w u d m : d X.=.f f u k f d ",
"I d I u g p q u n     Q   & & > > > >   > > > *.  O.O.O.O.O.O.O.O.O.O.O.O.O.O.O.O.O.O.O.O.O.O.O.O.O.O.O.O.O.O.O.O.X.=.=.f n d g ",
"k e u e H f * u I f       + & & & & &   *.*.*.    =.=.=.  & & + X   n k u             :           ; ~ H m w p S X.=.u e s s k k ",
"e e u f c g e g g : d       X + &               & > > > > > & & +           > > > >       >   >   f u d g w x S u e k f u 8 a 9 ",
"q n k u 7 q u f e u p X.;.=.      X X X X X + + & & > > > > & &   ! ! ! !   > > >       > >   >     < u u w w x k k q k f k k f ",
"d u e f H u : u X.U =.O.X.;.O.q   X + + + + + & & > > > > > >   Q ! Q ! Q   > > >   > > >   *.> >   q w g u x z u 9 e * S U u u ",
"4 9 S ; 5 x 7 =.O.X.;.=.O.X.O.'   + + & & & > > > > > > > >   1 ! 1 ! 1 !   & & >   & & &   *.& &   x ' 5 i m ; u W 5 H ) k 7 w ",
") g 5 H x w X.;.=.O.X.7 O.X.5 O.  + + & > > > > > > > > >                   & & & &         *.&     5 u g u w w g u d : u y 7 P ",
"u } H u x =.O.X.=.O.X.U =.O.w O.9   & & & > > > >           g u 9 N f n     & & & &   u 5         f u w q m m U 5 u d f i ; f c ",
"g q - g X.;.=.O.X.f O.g 8 O.u g O.                2 2 O     u f n d q n u u           u     o.o.  c f g u k d } z y r i 6 y r m ",
"u ^ x =.O.X.;.=.O.} O.6 u } O.      ! 1 ! 1   3 3 2 O O   q =.m e d ) 9 g m w q ^ U U 7   o.o.  o.  f * w x g g c ; i y f 6 U q ",
"d w ; f =.O.X.g O.u u O.d Z   > >   1 ! 1 %.  3 3 2 O O   u g =.d H f g u d f , u u x   o.o.o.  o.  Z w w q 7 ] g y 5 ; x u ) 6 ",
"u w x 7 g =.O.x q O.; e     > > >   ! 1 ! 1   3 2 O O O   } x u =.j q h t g q m u x d   o.o.    o.  d n m u m q q x z d 7 y g q ",
"p : 9 8 g g O.e p = O.  > > >         ! 1 -.  3 3 2 O O   q 9 w d =.7 7 i u u u 5 d     o.  9 f     I n u w i i x u w q w F G g ",
"a 9 Z q V u D O.e W     > >               !   3 3 2 O O       g m ' =.w 5 q 7 u d )   o.o.  W { {   9 D I g y c c 7 u d u f 6 g ",
"p g q w g a V w O.  + > > >                                   5 u I q =.q g ' g ) u   o.  7 u g c f e f e 9 P c g ) 8 F H p : Z ",
"R w g 8 p k Z w     + + > > >     ! !                         H H u i % =.q u x w 7   o.  i ^ w d q n u q f H ( g d d f f c w [ ",
"w 6 w H U W w f   X + + + + +   Q Q ! =.      2 2 2 2 O O     g % x ' w q =.R d u 5   o.  g f d f u p p Z ` u d x w w w x u m g ",
"7 F w d w u p g   X X + + +   1 Q Q ! !         2 2 2 O   +.  u d d u x p u =.F d U   o.  q w 5 p I u Z u c d d w g g m m H d u ",
"6 g w g m j u Y     X X + +   1 1 Q Q !       +.  2 2 O   @.+.  c g d w 6 c Z =.6 j   o.  q ' f c d 9 g Z w m f w ; u ; u H u w ",
") * f ' w ; < j g   X X X       1 1 Q Q     @.+.  2 O O   +.+.  c u f g k p V w =.0   o.  q d u 8 a g u g u u x w q g d U U % m ",
"x ; c ' 8 u H t : c         +     1 1 1     +.  2 2 O O O   +.  p ' d k W T e g 0 =.;.  o.  u 5 H D W d _ 8 H d x g H u p Z u q ",
"g g w m R Z p g ) : ^ f   +     1               2 2 O 2 O O   +.  a 4 6 a p w f _ : =.  o.  d p w u e d w e u x d g 7 d g u g 8 ",
"m q w d 6 u j ) U # f g   X   1 Q Q Q ! !     +.  2 O 2 O   +.@.  q f e g D e R ^ $ f   o.  H w p k g ; ; d U p U q u d x d w m ",
"H d m x p c d f g 5 m u       1 1 1 Q Q Q     @.+.  O 2 O O   +.  n { f g l a g f 6 0 -     d g g n f 9 d m x u x 0 ' m c u c u ",
"w q m x g 5 H u q x g x g         1 1 1 1       +.  O 2 O O O       e S e s k u 0 g % . t f u u x k H p } 5 c c t x ' d m u 0 c ",
"u q _ t q H d d 7 7 w m F f f             $.        2 2 O O O   +.  V S e 8 k p q f t U 0 6 q u q u u g q u w c p f u p H j u g ",
"f Z w u u m 7 w ) H x u } d 7     o Q o ! o       2 2 2 2 O   +.@.    q * 9 7 u f x q j d j c u p g x : ; d _ u H u u u f f x q ",
"U u u H } d x g x 5 u Z u g H q   o 1 o ! o     +.  2 2 O             u p e u U u d ^ m t - f f w ` u : f Z m u c 6 c c f q 6 d ",
"0 u Z u d f m m u 7 g x 6 0 c ^   1 o Q o !     @.+.  2               q u u Z m g u H c g 7 u ) x x u q w u g m w m H I ; e e p ",
"p c g f g q t u g u w 6 u } R     1 o 1 o Q     @.            1 1 1   g : p j u U d t 7 d H k H q m x d q 7 g u d d c e d p 4 k ",
"g d q : m q g x t ; u p g       1 o 1 o 1 o         X X     1           U u u p d 6 g r q u ) 7 d q 7 ; 7 z q 7 u u e 6 9 V e k ",
"H V t ^ 5 R F g q d 6 w     >     1 o 1 o 1   X X X X X       > > > > >   : d x g _ } w ' u S 4 x d w U w f w u w u g d u f s s ",
"F f I u Z f n f c p 8 c   > > >                 X X       > > > > > > >   d 7 w x S d x e k e e k e 7 d 4 I n u w ; m k k n a s ",
"c w u w 6 6 8 8 u q c e   > > > > > > > > >             > > > > > > >     q k u d q k d f p u f e 4 n 4 d c e _ H 6 d u d p V k ",
"u H : W u u U q V p w       > > > > > > >     w c         > > >         n u : q u m S e 9 f I k I 9 k q f g g W e u k d d 9 q f ",
"g q w Z 5 u 6 u _ Z   X X >   > > > > >     q Z f f u w   >     >   x u : e u k e u k f q I k = w 9 k W Z d H I p g q c k d k u ",
"u g c e 4 k D c q Z   X > >     > > >     n u u x S d S       > >   u g m u ; u R H k q u a q 9 m m u d c c : w d w w % n ) q f ",
"x H f k q W ' 9 g   X X > > >           u S { S g g d e     X > >   x 5 7 g 9 e f x n k W e u T U Z w n w d f w w H 4 S ' u k q ",
"k P e e f [ 6 8     X > > > > >         f w k f g u d S u   X > >   ; F g w } 8 6 d k u x d 8 Z g 6 : 6 f _ p d f d g 7 w d f e ",
"e 9 e : q g f     X > > > >     5 q x ) x u k k w q : g )   X X >   U w m x ) m e u f S g w q f u u w k m ' : w 6 u g d e f * U ",
"t q ; : e e   X X > >       u d u x u u u x u } f u d g g     > >   ; g [ d x - g p U x 5 x q f U Z f p f t : ) g u q f q u p u ",
"w w Z 9 V   X X > >     f w U c : u x % q x m d S ; y H H u   > >     d Z U d q p  .f 0 w u U W c u U : u q g u H : g 4 u f q Z ",
"D a 8 c f   X > > >   I u u u : H m m g q q 5 } d u 7 % ' x   > > >   g Z u U x [ w u < ' 5 d w V d c d j f g k u H m q V p k Z ",
"a p p f f   X X > >   D q g m F } 5 q m P u m q u z x g u     > > >     g d U x q 6 ; u q u ) w u q 0 G w j k u k d f f Z f p n ",
"g 8 c 4 T   X X X > >     u S S j x c U u u d u g u u 6 w   X > > > >       ) p u < g w 5 x d u t j j F u ) q f 6 V f n W p w p ",
"Z f c V H s   X X > > >     q d f g 8 H U x w H x q w d u   X X X > > > > >   m g R u ' g 7 w 7 g j 6 F f f q q n 6 n k k 9 p 8 ",
"s q 4 9 R w c       > >     f q _ x t j u 7 U m x H 7 U H       X X X X >     u 5 g x m t u U x t u d d u 7 g u f D s D k a 4 l ",
"P 8 Z 9 a w e H n           I k w g c u u g m ) d d d u g x u               < u u q 5 H u 7 g u q j m : d t p d k f s V a k e W "
};
