/* XPM */
static const char *player[] = {
/* columns rows colors chars-per-pixel */
"64 64 26 1 ",
"  c black",
". c #1D1607",
"X c #1D1D1D",
"o c #350009",
"O c #251C0A",
"+ c #31240D",
"@ c #3F2F10",
"# c #313131",
"$ c #5B0010",
"% c #710014",
"& c #444444",
"* c #5F5F5F",
"= c gray50",
"- c #8A5639",
"; c #B97A57",
": c #CA9C00",
"> c #FFC90E",
", c #FF9866",
"< c gray65",
"1 c gray74",
"2 c #FFAA82",
"3 c #FFBE9F",
"4 c #C3C3C3",
"5 c #C8C8C8",
"6 c white",
"7 c None",
/* pixels */
"7777777777777777777777777777777777777777777777777777777777777777",
"777777777777777777777777777 777777777777777777777777777777777777",
"77777777777777777777777777   77777777777777777777777777777777777",
"777777777777777777777777   =   777777777777  7777777777777777777",
"77777777777777777777777 .. = .. 7777777777 - 7777777777777777777",
"7777777777777777777777 ... = .. 777777777 - 77777777777777777777",
"777777777777777777777     == ... 77777774 - 77777777777777777777",
"77777777777777777777  ===== = .. 77777747 - 77777777777777777777",
"777777777777777777777     ====    7774477 - 77777777777777777777",
"7777777777777777777777 333   ====  747777 - 77777777777777777777",
"7777777777777777777777 3332,,     7477777 - 77777777777777777777",
"7777777777777777777777   3322,, 7447777777 - 777   7777777777777",
"77777777777777777777  +O. 33322 4777777777 -- 7  777777777777777",
"7777777777777     77 @@+O. 3333 7777777777  - 7 - 77777777777777",
"7777777777    @@@@      ++. 33 777777777777 -- -- 77777777777777",
"777777777 &*  @@@@@ O@3  ===   7777777777777 - -- 777777=4777777",
"777777777  & ++@@@@ @@@3 ;;;;;;;;;;;;;;;;;;;;;;;;;;;;;;;;=447777",
"7777777777   O+++++ 333  444 ++O. 777      7     7777777=4777777",
"77777777777   .O+       +@@@@@++O     @@@@   @ @ 777777777777777",
"77777777777=64   .....OO++@@@@++ **** @@@   @@ @  77777777777777",
"77777777=74;=6;7 .OOOOO++@@@@@@ &*&*& @@@ @@@ 3@@ 77777777777777",
"77777774;=64;=;7 OO+++@@@@@@@@ #*#*#* ++@ +++ 3++ 77777777777777",
"777777=64;=7;=7; OO+@@@@@@@@@         ++++    3+  77777777777777",
"777774;=4;=74;7;7 +++@@@@     777777  ++++ 77    777777777777777",
"7777=64;=7;77;77;        $$o  77777777     7  -- 777777777777777",
"7774;=64;7;777;   *#*# %%$oo 747777777777777 -- - 77777777777777",
"77774;=7;77;77 @@ #*#1 %%$oo 77477777777777 --- - 77777777777777",
"777774;77;77  @@@ *#*# %$ooo 77747777777777 --  - 77777777777777",
"777777;777; @@@    *#5 %%$oo 7777477777777  - 77  77777777777777",
"7777777;77  @@       * %%$oo   77747777777 -- 777 77777777777777",
"77777777; O@@@                 77774777777 - 7777777777777777777",
"77777777  OO@@@  **            77777477777 - 7777777777777777777",
"77777777 .OOOOO &&*4   $$$$oo  77777747777 - 7777777777777777777",
"77777777 ..OOO #&&**    $$$o : 77777774777 - 7777777777777777777",
"77777777  ..OO ##&&*   : $$o >: 7777777477 - 7777777777777777777",
"777777777 ...   ##&&  >: $oo :: 7777777747 - 7777777777777777777",
"7777777777    O  ###  : $$ooo : 77777777746 - 777777777777777777",
"777777777777 O  #       $$o$oo : 7777777774 - 777777777777777777",
"777777777777 . #&&&**  : $o$o :> 7777777777 - 777777777777777777",
"777777777777   ###&&&  >: o$oo : 77777777777  777777777777777777",
"7777777777777    ####   : o$ooo   777777777777777777777777777777",
"777777777777777      <    $$ooo : 777777777777777777777777777777",
"777777777777777  X&X*X   $$$$o :>  77777777777777777777777777777",
"7777777777777777 X#X*X  : $$o      77777777777777777777777777777",
"7777777777777777 #X&X*  >: $       77777777777777777777777777777",
"777777777777777  #X#X&  >      ### 77777777777777777777777777777",
"7777777777777   #X#X#X    ..  #     7777777777777777777777777777",
"777777777777  @  #X#X# .....   @@@@@ 777777777777777777777777777",
"777777777777 @@@        ..   @@@@@@@ 777777777777777777777777777",
"777777777777 @@@@@@@@@      @@@@@@@  777777777777777777777777777",
"77777777777   @@@@@@@  77    @@@    7777777777777777777777777777",
"7777777777 ..@ @@@@@  777777 @  @ 777777777777777777777777777777",
"7777777777 .@@  @@@  7777777   @@ 777777777777777777777777777777",
"777777777 ..@@@     77777777  .@@ 777777777777777777777777777777",
"77777777  .@@@@@    777777777 .@@ 777777777777777777777777777777",
"7777777  .@@@@  7777777777777 ..@ 777777777777777777777777777777",
"777777 ..@@   777777777777777  @@ 777777777777777777777777777777",
"77777 ..@@  777777777777777777 @@  77777777777777777777777777777",
"77777 .@@@ 7777777777777777777 @@@ 77777777777777777777777777777",
"77777 ..@@ 777777777777777777  @@@  7777777777777777777777777777",
"77777 ...@@  7777777777777777 .@@@@   77777777777777777777777777",
"777777 ..@@@  777777777777777 ...@@@@@ 7777777777777777777777777",
"7777777   @@  777777777777777   ....@  7777777777777777777777777",
"777777777     77777777777777777       77777777777777777777777777"
};
